<?xml version="1.0" standalone="no"?>
<!DOCTYPE svg PUBLIC "-//W3C//DTD SVG 20010904//EN"
 "http://www.w3.org/TR/2001/REC-SVG-20010904/DTD/svg10.dtd">
<svg version="1.0" xmlns="http://www.w3.org/2000/svg"
 width="16.000000pt" height="16.000000pt" viewBox="0 0 16.000000 16.000000"
 preserveAspectRatio="xMidYMid meet">

<g transform="translate(0.000000,16.000000) scale(0.100000,-0.100000)"
fill="#000000" stroke="none">
<path d="M19 119 c-12 -22 -2 -43 35 -78 l26 -24 26 24 c63 59 53 97 -26 97
-39 0 -53 -5 -61 -19z m49 -1 c8 -8 15 -8 26 1 8 7 20 10 26 6 18 -11 11 -41
-15 -65 l-25 -23 -25 23 c-24 23 -32 50 -18 63 9 10 17 9 31 -5z"/>
</g>
</svg>
